<svg width="30" height="43" viewBox="0 0 30 43" fill="none" xmlns="http://www.w3.org/2000/svg">
<path fill-rule="evenodd" clip-rule="evenodd" d="M6.00043 18C4.19895 18 2.80371 19.5765 3.02267 21.3646L5.28797 39.8646C5.47221 41.3692 6.74989 42.5 8.26573 42.5H22.9012C24.4402 42.5 25.7295 41.3355 25.8857 39.8045L27.7735 21.3045C27.9539 19.5364 26.5663 18 24.789 18H6.00043ZM15.6107 34C17.2675 34 18.6107 32.433 18.6107 30.5C18.6107 28.567 17.2675 27 15.6107 27C13.9538 27 12.6107 28.567 12.6107 30.5C12.6107 32.433 13.9538 34 15.6107 34Z" fill="#E29D04"/>
<rect y="6" width="30" height="9" rx="3" fill="#E29D04"/>
<path d="M3 3C3 1.34315 4.34315 0 6 0H24C25.6569 0 27 1.34315 27 3V7H3V3Z" fill="#E29D04"/>
</svg>
